<svg xmlns="http://www.w3.org/2000/svg" width="18.691" height="18.714" viewBox="0 0 18.691 18.714"><defs><style>.a{fill:#765e30;}</style></defs><path class="a" d="M17.572,23.787H29.4L24.257,18.66h0a1.565,1.565,0,0,1,2.213-2.213l7.791,7.791h0a1.558,1.558,0,0,1,.327.514h0a1.558,1.558,0,0,1,0,1.184h0a1.558,1.558,0,0,1-.327.514l-7.791,7.791h0a1.558,1.558,0,0,1-2.2.009l-.009-.009h0a1.558,1.558,0,0,1-.009-2.2l.009-.009L29.4,26.9H17.572a1.558,1.558,0,1,1,0-3.116Z" transform="translate(-16.013 -15.989)"/></svg>