<svg xmlns="http://www.w3.org/2000/svg" width="18.691" height="18.714" viewBox="0 0 18.691 18.714"><defs><style>.a{fill:#765e30;}</style></defs><path class="a" d="M33.146,23.787H21.319l5.142-5.127h0a1.565,1.565,0,0,0-2.213-2.213l-7.791,7.791h0a1.558,1.558,0,0,0-.327.514h0a1.558,1.558,0,0,0,0,1.184h0a1.558,1.558,0,0,0,.327.514l7.791,7.791h0a1.558,1.558,0,0,0,2.2.009l.009-.009h0a1.558,1.558,0,0,0,.009-2.2l-.009-.009L21.319,26.9H33.146a1.558,1.558,0,1,0,0-3.116Z" transform="translate(-16.013 -15.989)"/></svg>