<svg xmlns="http://www.w3.org/2000/svg" width="117.104" height="73.319" viewBox="0 0 117.104 73.319"><defs><style>.a{fill:rgba(0,0,0,0);stroke:#765e30;stroke-linecap:round;stroke-linejoin:round;stroke-width:5px;}.b{fill:#765e30;}</style></defs><g transform="translate(2.81 2.5)"><path class="a" d="M117.649,24.32H8.96" transform="translate(-8.96 -5.688)"/><path class="a" d="M42.029,39.68H14.08" transform="translate(-1.658 16.217)"/><path class="a" d="M120.754,20.48V73.272h0a7.236,7.236,0,0,1-6.211,6.211H15.171A6.677,6.677,0,0,1,8.96,73.272V29.8" transform="translate(-8.96 -11.164)"/><path class="a" d="M8.96,22.851h0a7.236,7.236,0,0,1,6.211-6.211h99.373a6.211,6.211,0,0,1,6.211,6.211v3.105" transform="translate(-8.96 -16.64)"/><path class="a" d="M38.4,33.28H63.243V48.807H38.4Z" transform="translate(33.024 7.09)"/><path class="b" d="M20.752,33.364a4.658,4.658,0,1,1-6.588,0,4.658,4.658,0,0,1,6.588,0" transform="translate(-3.484 5.265)"/></g></svg>