<svg xmlns="http://www.w3.org/2000/svg" width="48.016" height="53.334" viewBox="0 0 48.016 53.334"><defs><style>.a{fill:#923140;}</style></defs><path class="a" d="M21.333,21.333h0a2.667,2.667,0,1,0,0,5.333H24a2.667,2.667,0,1,0,0-5.333Zm13.333,32H16a2.667,2.667,0,0,1-2.667-2.667h0V13.333h0A2.667,2.667,0,0,1,16,10.667H29.333v8h0a8,8,0,0,0,8,8h8V32h0a2.667,2.667,0,0,0,5.333,0V23.84h0a3.494,3.494,0,0,0-.16-.72v-.24h0A2.853,2.853,0,0,0,50,22.133h0l-16-16h0a2.853,2.853,0,0,0-.747-.507h0a.773.773,0,0,0-.267,0h0a2.933,2.933,0,0,0-.827-.293H16a8,8,0,0,0-8,8V50.667H8a8,8,0,0,0,8,8H34.667a2.667,2.667,0,1,0,0-5.333Zm0-38.907,6.907,6.907h-4.24a2.667,2.667,0,0,1-2.667-2.667h0ZM37.333,32h-16a2.667,2.667,0,1,0,0,5.333h16a2.667,2.667,0,0,0,0-5.333ZM55.227,48.773h0a2.667,2.667,0,0,0-3.771-.015l-.015.015-.773.8V42.667h0a2.667,2.667,0,1,0-5.333,0v6.907l-.773-.8h0a2.678,2.678,0,0,0-3.787,3.787h0l5.333,5.333h0a2.667,2.667,0,0,0,.88.56h0a2.507,2.507,0,0,0,2.027,0h0a2.667,2.667,0,0,0,.88-.56l5.333-5.333h0a2.667,2.667,0,0,0,.015-3.771l-.015-.015ZM32,48h0a2.667,2.667,0,1,0,0-5.333H21.333a2.667,2.667,0,1,0,0,5.333Z" transform="translate(-8 -5.333)"/></svg>