<svg xmlns="http://www.w3.org/2000/svg" width="37.006" height="37.068" viewBox="0 0 37.006 37.068"><defs><style>.a{fill:#fff;}</style></defs><path class="a" d="M44.879,18.89a13.417,13.417,0,0,0-.861-4.554,9.473,9.473,0,0,0-5.411-5.411,13.576,13.576,0,0,0-4.492-.863c-1.977-.088-2.6-.113-7.622-.113s-5.661,0-7.624.113a13.574,13.574,0,0,0-4.49.863,9.467,9.467,0,0,0-5.411,5.411,13.468,13.468,0,0,0-.861,4.49c-.088,1.979-.115,2.606-.115,7.624s0,5.659.115,7.624a13.554,13.554,0,0,0,.861,4.494,9.473,9.473,0,0,0,5.413,5.409,13.53,13.53,0,0,0,4.49.925c1.979.088,2.606.115,7.624.115s5.661,0,7.624-.115a13.542,13.542,0,0,0,4.492-.861,9.485,9.485,0,0,0,5.411-5.411,13.534,13.534,0,0,0,.861-4.494c.088-1.977.115-2.6.115-7.624S44.994,20.857,44.879,18.89Zm-18.4,17.05a9.5,9.5,0,1,1,9.5-9.5A9.5,9.5,0,0,1,26.481,35.94ZM36.359,18.8a2.215,2.215,0,1,1,2.213-2.215A2.212,2.212,0,0,1,36.359,18.8Z" transform="translate(-7.992 -7.949)"/><path class="a" d="M34.511,25.744a6.171,6.171,0,1,1-8.727,0,6.171,6.171,0,0,1,8.727,0" transform="translate(-11.658 -11.616)"/></svg>