<svg xmlns="http://www.w3.org/2000/svg" width="21.866" height="21.903" viewBox="0 0 21.866 21.903"><defs><style>.a{fill:#515c6f;}</style></defs><path class="a" d="M29.788,14.414a7.928,7.928,0,0,0-.509-2.691,5.6,5.6,0,0,0-3.2-3.2,8.022,8.022,0,0,0-2.654-.51c-1.168-.052-1.538-.067-4.5-.067s-3.345,0-4.5.067a8.021,8.021,0,0,0-2.653.51,5.594,5.594,0,0,0-3.2,3.2,7.958,7.958,0,0,0-.509,2.653c-.052,1.169-.068,1.54-.068,4.5s0,3.344.068,4.5a8.009,8.009,0,0,0,.509,2.656,5.6,5.6,0,0,0,3.2,3.2,8,8,0,0,0,2.653.546c1.169.052,1.54.068,4.5.068s3.345,0,4.5-.068a8,8,0,0,0,2.654-.509,5.6,5.6,0,0,0,3.2-3.2,8,8,0,0,0,.509-2.656c.052-1.168.068-1.538.068-4.5S29.856,15.576,29.788,14.414ZM18.917,24.489a5.613,5.613,0,1,1,5.613-5.613A5.612,5.612,0,0,1,18.917,24.489Zm5.837-10.126a1.309,1.309,0,1,1,1.308-1.309A1.307,1.307,0,0,1,24.753,14.363Z" transform="translate(-7.992 -7.949)"/><path class="a" d="M30.2,25a3.646,3.646,0,1,1-5.157,0A3.646,3.646,0,0,1,30.2,25" transform="translate(-16.698 -16.657)"/></svg>