<svg xmlns="http://www.w3.org/2000/svg" width="41.291" height="48.841" viewBox="0 0 41.291 48.841"><defs><style>.a{fill:#765e30;}</style></defs><path class="a" d="M44.639,11.37h0A20.658,20.658,0,0,0,15.423,40.585h0L28.254,53.44h0a2.435,2.435,0,0,0,3.443.014l.014-.014L44.639,40.464h0a20.572,20.572,0,0,0,0-29.094ZM41.157,36.982,30.031,48.157,18.9,36.982h0a15.728,15.728,0,1,1,22.252,0ZM22.727,18.5h0a10.518,10.518,0,0,0,0,14.851h0a10.493,10.493,0,0,0,17.919-7.3h0a10.323,10.323,0,0,0-3.068-7.426h0a10.469,10.469,0,0,0-14.8-.168l-.047.046ZM34.145,29.9h0a5.673,5.673,0,1,1,1.631-3.968h0A5.673,5.673,0,0,1,34.024,29.9Z" transform="translate(-9.373 -5.319)"/></svg>