<svg xmlns="http://www.w3.org/2000/svg" width="53.333" height="42.667" viewBox="0 0 53.333 42.667"><defs><style>.a{fill:#fae3b5;}</style></defs><g transform="translate(-5.333 -10.667)"><path class="a" d="M53.333,10.667H16A5.339,5.339,0,0,0,10.667,16V29.333H16v-8l17.067,12.8a2.667,2.667,0,0,0,3.2,0l17.067-12.8v24H32v5.333H53.333a5.339,5.339,0,0,0,5.333-5.333V16A5.339,5.339,0,0,0,53.333,10.667Zm-18.667,18L17.776,16H51.557Z"/><path class="a" d="M5.333,32H24v5.333H5.333Zm5.333,8h16v5.333h-16Zm8,8H29.333v5.333H18.667Z"/></g></svg>