<svg xmlns="http://www.w3.org/2000/svg" width="57.721" height="57.831" viewBox="0 0 57.721 57.831"><defs><style>.a{fill:none;stroke:#765e30;stroke-linecap:round;stroke-linejoin:round;stroke-width:4px;}</style></defs><g transform="translate(-6.859 -8.102)"><path class="a" d="M30.657,51.243h0a16.519,16.519,0,0,1,0-32.44" transform="translate(1.916 1.993)"/><path class="a" d="M33.28,18.8h0a16.519,16.519,0,0,1,0,32.44" transform="translate(5.586 1.993)"/><path class="a" d="M35.129,28.842c-4.924-3.524-7.032-.11-6.686,1.778S31.054,32.854,32.014,33c6.781.975,2.265,8.967-4.468,3.98" transform="translate(4.272 3.943)"/><path class="a" d="M30.72,25.664V27.52" transform="translate(4.999 3.565)"/><path class="a" d="M30.72,36.454v2.47" transform="translate(4.999 6.037)"/><path class="a" d="M43.52,44.8h6.293" transform="translate(7.932 7.949)"/><path class="a" d="M48.64,51.093V44.8" transform="translate(9.105 7.949)"/><path class="a" d="M56.3,49.745q-.755.9-1.573,1.746h0A26.745,26.745,0,0,1,9.1,29.466" transform="translate(0 4.436)"/><path class="a" d="M19.093,19.2H12.8" transform="translate(0.894 2.084)"/><path class="a" d="M12.8,14.08v6.293" transform="translate(0.894 0.911)"/><path class="a" d="M13.978,19.853q.755-.9,1.573-1.746h0A26.745,26.745,0,0,1,61.175,40.132" transform="translate(1.164 0)"/></g></svg>