<svg xmlns="http://www.w3.org/2000/svg" width="58.667" height="58.667" viewBox="0 0 58.667 58.667"><defs><style>.a{fill:#765e30;}</style></defs><path class="a" d="M29.333,24H40a2.667,2.667,0,1,0,0-5.333H34.667V16h0a2.667,2.667,0,1,0-5.333,0v2.667h0a8,8,0,0,0,0,16h5.333a2.667,2.667,0,1,1,0,5.333H24a2.667,2.667,0,0,0,0,5.333h5.333V48h0a2.667,2.667,0,1,0,5.333,0V45.333h0a8,8,0,1,0,0-16H29.333a2.667,2.667,0,0,1,0-5.333ZM32,2.667h0A29.333,29.333,0,1,0,61.333,32h0A29.333,29.333,0,0,0,32,2.667ZM32,56h0A24,24,0,1,1,56,32h0A24,24,0,0,1,32,56Z" transform="translate(-2.667 -2.667)"/></svg>