<svg xmlns="http://www.w3.org/2000/svg" width="53.142" height="52.988" viewBox="0 0 53.142 52.988"><defs><style>.a{fill:#765e30;}</style></defs><path class="a" d="M51.84,34.667a8.391,8.391,0,0,1-1.787-.32h0a25.174,25.174,0,0,1-3.493-1.04h0a5.333,5.333,0,0,0-6.613,2.667l-.587,1.2h0a32.48,32.48,0,0,1-7.093-5.333h0a32.48,32.48,0,0,1-5.333-7.093L28.053,24h0a5.333,5.333,0,0,0,2.667-6.613h0a27.547,27.547,0,0,1-1.04-3.493c-.133-.587-.24-1.2-.32-1.813h0a8,8,0,0,0-8-6.64h-8a8,8,0,0,0-8,9.093h0A50.667,50.667,0,0,0,49.413,58.427h1.013A8,8,0,0,0,55.76,56.4h0a8,8,0,0,0,2.667-6v-8h0a8,8,0,0,0-6.587-7.733Zm1.333,16h0a2.667,2.667,0,0,1-.907,2h0a2.8,2.8,0,0,1-2.187.667h0A45.333,45.333,0,0,1,10.853,13.92h0a2.907,2.907,0,0,1,.667-2.187h0a2.667,2.667,0,0,1,2-.907h8a2.667,2.667,0,0,1,2.667,2.107q.16,1.093.4,2.16h0a29.653,29.653,0,0,0,1.227,4.133L22.08,20.96h0A2.667,2.667,0,0,0,20.768,24.5l.005.011h0A38.64,38.64,0,0,0,39.44,43.173h0a2.667,2.667,0,0,0,2.027,0h0a2.667,2.667,0,0,0,1.52-1.387l1.653-3.733h0a36.507,36.507,0,0,0,4.213,1.227q1.067.24,2.16.4h0a2.667,2.667,0,0,1,2.107,2.667Z" transform="translate(-5.285 -5.439)"/></svg>