<svg xmlns="http://www.w3.org/2000/svg" width="41.061" height="41.061" viewBox="0 0 41.061 41.061"><defs><style>.a{fill:#fff;}</style></defs><path class="a" d="M-302.25-653.313a20.529,20.529,0,0,0-20.529,20.529A20.541,20.541,0,0,0-309.73-613.66a19.73,19.73,0,0,1,.07-5.894c.374-1.6,2.408-10.205,2.408-10.205a7.418,7.418,0,0,1-.614-3.05c0-2.852,1.654-4.983,3.715-4.983,1.753,0,2.6,1.315,2.6,2.891,0,1.763-1.122,4.4-1.7,6.837a2.981,2.981,0,0,0,3.039,3.709c3.648,0,6.455-3.847,6.455-9.4,0-4.915-3.533-8.351-8.575-8.351a8.887,8.887,0,0,0-9.272,8.908,7.989,7.989,0,0,0,1.529,4.685.616.616,0,0,1,.142.588c-.156.647-.5,2.043-.569,2.328-.09.376-.3.456-.688.275-2.563-1.194-4.165-4.942-4.165-7.955,0-6.475,4.7-12.422,13.565-12.422,7.123,0,12.657,5.074,12.657,11.857,0,7.077-4.461,12.768-10.653,12.768a5.494,5.494,0,0,1-4.706-2.355s-1.03,3.919-1.28,4.879a22.941,22.941,0,0,1-2.55,5.384,20.548,20.548,0,0,0,6.079.915,20.53,20.53,0,0,0,20.529-20.529,20.534,20.534,0,0,0-20.531-20.531" transform="translate(322.779 653.313)"/></svg>