<svg xmlns="http://www.w3.org/2000/svg" width="24.262" height="24.262" viewBox="0 0 24.262 24.262"><defs><style>.a{fill:#515c6f;}</style></defs><g transform="translate(0)"><path class="a" d="M-310.649-653.313a12.13,12.13,0,0,0-12.13,12.13,12.137,12.137,0,0,0,7.71,11.3,11.658,11.658,0,0,1,.041-3.482c.221-.947,1.423-6.03,1.423-6.03a4.383,4.383,0,0,1-.363-1.8c0-1.685.977-2.945,2.2-2.945a1.523,1.523,0,0,1,1.535,1.708,24.5,24.5,0,0,1-1,4.04,1.761,1.761,0,0,0,1.8,2.192c2.155,0,3.814-2.273,3.814-5.555a4.788,4.788,0,0,0-5.067-4.935,5.251,5.251,0,0,0-5.479,5.264,4.72,4.72,0,0,0,.9,2.768.364.364,0,0,1,.084.347c-.092.383-.3,1.207-.336,1.376-.053.222-.176.27-.407.163-1.514-.705-2.461-2.92-2.461-4.7,0-3.826,2.779-7.34,8.015-7.34,4.209,0,7.479,3,7.479,7.006,0,4.182-2.636,7.544-6.295,7.544a3.247,3.247,0,0,1-2.781-1.392s-.608,2.316-.756,2.883a13.558,13.558,0,0,1-1.507,3.181,12.141,12.141,0,0,0,3.592.54,12.131,12.131,0,0,0,12.13-12.13,12.133,12.133,0,0,0-12.132-12.132" transform="translate(322.779 653.313)"/></g></svg>