<svg xmlns="http://www.w3.org/2000/svg" width="53.333" height="53.333" viewBox="0 0 53.333 53.333"><defs><style>.a{fill:#923140;}</style></defs><path class="a" d="M18.667,26.667h0a2.667,2.667,0,1,0,2.667,2.667h0A2.667,2.667,0,0,0,18.667,26.667ZM50.667,16H48V8h0a2.667,2.667,0,0,0-2.667-2.667H18.667A2.667,2.667,0,0,0,16,8h0v8H13.333a8,8,0,0,0-8,8h0V40h0a8,8,0,0,0,8,8H16v8h0a2.667,2.667,0,0,0,2.667,2.667H45.333A2.667,2.667,0,0,0,48,56V48h2.667a8,8,0,0,0,8-8V24h0A8,8,0,0,0,50.667,16ZM21.333,10.667H42.667V16H21.333ZM42.667,53.333H21.333V42.667H42.667ZM53.333,40h0a2.667,2.667,0,0,1-2.667,2.667H48V40h0a2.667,2.667,0,0,0-2.667-2.667H18.667A2.667,2.667,0,0,0,16,40h0v2.667H13.333A2.667,2.667,0,0,1,10.667,40h0V24h0a2.667,2.667,0,0,1,2.667-2.667H50.667A2.667,2.667,0,0,1,53.333,24Z" transform="translate(-5.333 -5.333)"/></svg>