<svg xmlns="http://www.w3.org/2000/svg" width="48" height="53.333" viewBox="0 0 48 53.333"><defs><style>.a{fill:#765e30;}</style></defs><path class="a" d="M26.667,21.333h16a2.667,2.667,0,1,0,0-5.333h-16a2.667,2.667,0,0,0,0,5.333ZM21.333,32H42.667a2.667,2.667,0,1,0,0-5.333H21.333a2.667,2.667,0,0,0,0,5.333Zm0,10.667H42.667a2.667,2.667,0,1,0,0-5.333H21.333a2.667,2.667,0,1,0,0,5.333Zm32-37.333H10.667A2.667,2.667,0,0,0,8,8H8V56H8a2.667,2.667,0,0,0,4.267,2.133L17.787,54l5.493,4.133h0a2.667,2.667,0,0,0,3.2,0L32,54l5.52,4.133h0a2.667,2.667,0,0,0,3.2,0L46.213,54l5.52,4.133h0a2.667,2.667,0,0,0,2.8.24h0A2.667,2.667,0,0,0,56,56V8h0a2.667,2.667,0,0,0-2.667-2.667h0ZM50.667,50.667l-2.853-2.133h0a2.667,2.667,0,0,0-3.2,0L39.12,52.667,33.6,48.533h0a2.667,2.667,0,0,0-3.2,0l-5.52,4.133-5.493-4.133h0a2.667,2.667,0,0,0-3.2,0l-2.853,2.133v-40H50.667Z" transform="translate(-8 -5.333)"/></svg>