<svg xmlns="http://www.w3.org/2000/svg" width="42.667" height="53.317" viewBox="0 0 42.667 53.317"><defs><style>.a{fill:#765e30;}</style></defs><path class="a" d="M52.347,9.733h0a2.667,2.667,0,0,0-2.24-.533h0A21.333,21.333,0,0,1,33.52,5.813h0a2.667,2.667,0,0,0-3.04,0h0A21.333,21.333,0,0,1,13.893,9.2h0a2.667,2.667,0,0,0-2.24.533h0a2.667,2.667,0,0,0-.987,2.08V31.68h0A24,24,0,0,0,20.72,51.227l9.733,6.933h0a2.667,2.667,0,0,0,3.093,0l9.733-6.933h0A24,24,0,0,0,53.333,31.68V11.813h0a2.667,2.667,0,0,0-.987-2.08ZM48,31.68h0a18.667,18.667,0,0,1-7.813,15.2L32,52.72l-8.187-5.84h0A18.667,18.667,0,0,1,16,31.68V14.88h0a26.667,26.667,0,0,0,16-3.707h0A26.667,26.667,0,0,0,48,14.88ZM36.107,25.573l-7.173,7.2-2.373-2.4h0a2.678,2.678,0,0,0-3.787,3.787h0l4.267,4.267h0a2.667,2.667,0,0,0,3.771.015l.015-.015L40,29.333h0a2.678,2.678,0,1,0-3.787-3.787Z" transform="translate(-10.667 -5.338)"/></svg>