<svg xmlns="http://www.w3.org/2000/svg" width="100.228" height="89.881" viewBox="0 0 100.228 89.881"><defs><style>.a{fill:none;stroke:#765e30;stroke-linecap:round;stroke-linejoin:round;stroke-width:5px;}</style></defs><g transform="translate(3.531 3.536)"><path class="a" d="M38.4,53.17V96.646H63.243a6.211,6.211,0,0,0,6.211-6.211V19.011h0A6.211,6.211,0,0,0,63.243,12.8H44.611A6.211,6.211,0,0,0,38.4,19.011h0V40.749" transform="translate(23.708 -12.8)"/><path class="a" d="M25.6,50.443V78.392H56.654V25.6" transform="translate(5.454 5.454)"/><path class="a" d="M56.654,24.32H31.811A6.211,6.211,0,0,0,25.6,30.531h0v9.316" transform="translate(5.454 3.629)"/><path class="a" d="M12.8,42.051h0a6.211,6.211,0,0,1,6.211-6.211H43.854V63.789H19.011A6.211,6.211,0,0,1,12.8,57.578h0V42.051" transform="translate(-12.8 20.057)"/><path class="a" d="M43.854,12.8,12.8,40.749" transform="translate(-12.8 -12.8)"/><path class="a" d="M20.48,12.8H32.9" transform="translate(-1.848 -12.8)"/><path class="a" d="M25.6,25.222V12.8" transform="translate(5.454 -12.8)"/><path class="a" d="M38.618,31.6,69.144,62.067" transform="translate(24.018 14.015)"/><path class="a" d="M38.618,39.923l16.552,16.49" transform="translate(24.018 25.88)"/><path class="a" d="M38.618,23.283,69.144,53.747" transform="translate(24.018 2.15)"/><path class="a" d="M38.4,15.36l31.054,29.5" transform="translate(23.708 -9.149)"/><path class="a" d="M43.52,12.8,62.152,31.432" transform="translate(31.01 -12.8)"/></g></svg>