<svg xmlns="http://www.w3.org/2000/svg" width="58.667" height="50.667" viewBox="0 0 58.667 50.667"><defs><style>.a{fill:#765e30;}</style></defs><path class="a" d="M2.667,33.333V46.667h0a2.667,2.667,0,0,0,2.667,2.667H8a8,8,0,1,0,16,0H40a8,8,0,0,0,16,0h2.667a2.667,2.667,0,0,0,2.667-2.667v-32h0a8,8,0,0,0-8-8h-24a8,8,0,0,0-8,8h0V20H16a8,8,0,0,0-6.4,3.2L3.2,31.733h0a1.627,1.627,0,0,0-.187.373l-.16.293h0a2.667,2.667,0,0,0-.187.933Zm42.667,16h0A2.667,2.667,0,1,1,48,52h0a2.667,2.667,0,0,1-2.667-2.667ZM26.667,14.667h0A2.667,2.667,0,0,1,29.333,12h24A2.667,2.667,0,0,1,56,14.667V44H53.92a8,8,0,0,0-11.3-.539q-.282.257-.539.539H26.667Zm-5.333,16H10.667l3.2-4.267h0A2.667,2.667,0,0,1,16,25.333h5.333Zm-8,18.667h0A2.667,2.667,0,1,1,16,52h0a2.667,2.667,0,0,1-2.667-2.667ZM8,36H21.333v7.413h0A8,8,0,0,0,10.08,44H8Z" transform="translate(-2.667 -6.667)"/></svg>