<svg xmlns="http://www.w3.org/2000/svg" width="40.384" height="32.802" viewBox="0 0 40.384 32.802"><defs><style>.a{fill:#fff;}</style></defs><path class="a" d="M41.569,18.892c.027.36.027.717.027,1.075,0,10.943-8.329,23.552-23.55,23.552A23.388,23.388,0,0,1,5.333,39.8a17.3,17.3,0,0,0,2,.1A16.582,16.582,0,0,0,17.61,36.368a8.294,8.294,0,0,1-7.741-5.74,10.541,10.541,0,0,0,1.564.127,8.807,8.807,0,0,0,2.18-.282,8.275,8.275,0,0,1-6.638-8.123v-.1a8.353,8.353,0,0,0,3.74,1.05A8.289,8.289,0,0,1,8.151,12.23a23.544,23.544,0,0,0,17.069,8.662,9.406,9.406,0,0,1-.206-1.9,8.285,8.285,0,0,1,14.325-5.664,16.352,16.352,0,0,0,5.253-2,8.262,8.262,0,0,1-3.639,4.562,16.59,16.59,0,0,0,4.765-1.282,17.765,17.765,0,0,1-4.149,4.281Z" transform="translate(-5.333 -10.717)"/></svg>