<svg xmlns="http://www.w3.org/2000/svg" width="23.862" height="19.382" viewBox="0 0 23.862 19.382"><defs><style>.a{fill:#515c6f;}</style></defs><path class="a" d="M26.744,15.548c.016.212.016.424.016.635A13.821,13.821,0,0,1,12.845,30.1a13.819,13.819,0,0,1-7.511-2.2,10.222,10.222,0,0,0,1.181.061,9.8,9.8,0,0,0,6.072-2.09,4.9,4.9,0,0,1-4.574-3.391,6.228,6.228,0,0,0,.924.075,5.2,5.2,0,0,0,1.288-.166,4.89,4.89,0,0,1-3.922-4.8V17.53a4.935,4.935,0,0,0,2.21.62A4.9,4.9,0,0,1,7,11.611a13.911,13.911,0,0,0,10.086,5.118,5.558,5.558,0,0,1-.121-1.121,4.9,4.9,0,0,1,8.465-3.346,9.662,9.662,0,0,0,3.1-1.181,4.882,4.882,0,0,1-2.15,2.7,9.8,9.8,0,0,0,2.816-.758A10.5,10.5,0,0,1,26.744,15.548Z" transform="translate(-5.333 -10.717)"/></svg>