<svg xmlns="http://www.w3.org/2000/svg" width="53.072" height="53.365" viewBox="0 0 53.072 53.365"><defs><style>.a{fill:#765e30;}</style></defs><path class="a" d="M41.893,33.893h0a16,16,0,1,0-19.787,0h0A26.667,26.667,0,0,0,5.52,55.707h0a2.683,2.683,0,0,0,5.333.587h0a21.333,21.333,0,0,1,42.4,0h0a2.667,2.667,0,0,0,2.667,2.373h.293a2.667,2.667,0,0,0,2.347-2.933h0a26.667,26.667,0,0,0-16.667-21.84ZM32,32h0A10.667,10.667,0,1,1,42.667,21.333h0A10.667,10.667,0,0,1,32,32Z" transform="translate(-5.504 -5.318)"/></svg>