<svg xmlns="http://www.w3.org/2000/svg" width="50.667" height="43.637" viewBox="0 0 50.667 43.637"><defs><style>.a{fill:#765e30;}</style></defs><g transform="translate(-5.333 -7.029)"><path class="a" d="M21.333,32A10.434,10.434,0,0,0,32,21.333,10.434,10.434,0,0,0,21.333,10.667,10.434,10.434,0,0,0,10.667,21.333,10.434,10.434,0,0,0,21.333,32Zm0-16a5.1,5.1,0,0,1,5.333,5.333,5.1,5.1,0,0,1-5.333,5.333A5.1,5.1,0,0,1,16,21.333,5.1,5.1,0,0,1,21.333,16ZM24,34.667H18.667A13.348,13.348,0,0,0,5.333,48v2.667h5.333V48a8.01,8.01,0,0,1,8-8H24a8.01,8.01,0,0,1,8,8v2.667h5.333V48A13.348,13.348,0,0,0,24,34.667ZM48.971,7.029,45.2,10.8a18.67,18.67,0,0,1,0,26.4l3.771,3.771a24,24,0,0,0,0-33.941Z"/><path class="a" d="M41.427,14.571l-3.771,3.776a7.989,7.989,0,0,1,0,11.307l3.771,3.776a13.333,13.333,0,0,0,0-18.859Z"/></g></svg>