<svg xmlns="http://www.w3.org/2000/svg" width="83" height="84" viewBox="0 0 83 84">
  <g fill="none" fill-rule="evenodd" stroke="#FFF" stroke-linecap="round" stroke-linejoin="round" stroke-width="3" transform="translate(2 2)">
    <path d="M0.068,78.171 L0.068,0.398 C0.068,0.398 53.724,-1.827 62.188,5.278 C70.652,12.383 77.17,23.662 75.928,31.559 C74.686,39.456 62.188,54.433 62.188,54.433 L79.197,78.171 L47.413,80.071 L30.913,58.771 L30.913,78.179 L0.068,78.171 Z"/>
    <polyline points=".068 .068 45.619 28.685 20.203 45.561"/>
    <polyline points=".69 76.666 19.917 46.453 1.689 2.129 44.501 28.763 66.508 9.098 44.501 29.553 62.093 54.233 43.58 30.204 31.012 57.857 78.153 77.734 31.012 57.134 43.58 29.557 19.917 46.457"/>
  </g>
</svg>
